<?xml version="1.0" encoding="UTF-8"?>
<svg xmlns="http://www.w3.org/2000/svg" width="400" height="96" viewBox="0 0 400 96" role="img" aria-label="Kahucik">
  <title>Kahucik</title>
  <g transform="translate(4,4) scale(1.05)" fill="none">
    <path d="M30 46 C12 28, 4 18, 8 10 C18 14, 26 30, 34 44Z" fill="#15803D"/>
      <path d="M32 48 C14 36, 2 30, 2 20 C14 22, 28 36, 36 48Z" fill="#16A34A"/>
      <path d="M34 50 C18 42, 6 40, 4 32 C16 34, 30 42, 38 52Z" fill="#4ADE80"/>
      <ellipse cx="34" cy="50" rx="5" ry="3.5" fill="#FEF3C7"/>
      <ellipse cx="44" cy="54" rx="18" ry="16" fill="#1D4ED8"/>
      <path d="M46 46 C58 42, 66 48, 64 58 C58 62, 48 60, 44 54Z" fill="#9A3412"/>
      <path d="M46 44 C56 38, 64 42, 62 52 C56 54, 48 52, 44 48Z" fill="#EA580C"/>
      <path d="M46 42 C54 36, 60 38, 58 46 C54 48, 48 46, 45 44Z" fill="#EF4444"/>
      <path d="M48 40 L42 22 L50 34Z" fill="#FACC15"/>
      <path d="M52 38 L50 18 L56 32Z" fill="#FBBF24"/>
      <path d="M56 36 L58 16 L62 30Z" fill="#F59E0B"/>
      <path d="M50 40 L46 28 L54 36Z" fill="#FB923C"/>
      <circle cx="56" cy="30" r="9" fill="#F97316"/>
      <path d="M50 24 C50 14, 54 12, 56 20 C58 12, 62 12, 62 22 C64 14, 68 16, 66 24 C62 26, 52 26, 50 24Z" fill="#DC2626"/>
      <path d="M64 30 L74 32 L64 35Z" fill="#FBBF24"/>
      <path d="M58 36 C58 42, 54 44, 52 40 C54 38, 56 36, 58 36Z" fill="#DC2626"/>
      <circle cx="58" cy="29" r="2.4" fill="#FDE68A"/>
      <ellipse cx="58.4" cy="29" rx="1.1" ry="1.5" fill="#1E293B"/>
      <path d="M38 68 L36 78 M36 78 L30 82 M36 78 L36 84 M36 78 L42 82" stroke="#D6A86A" stroke-width="2.2" stroke-linecap="round" stroke-linejoin="round"/>
      <path d="M48 68 L50 78 M50 78 L44 82 M50 78 L50 84 M50 78 L56 82" stroke="#D6A86A" stroke-width="2.2" stroke-linecap="round" stroke-linejoin="round"/>
  </g>
  <path d="M110.77 56L110.77 18.09L120.55 18.09L120.55 31.93L134.64 18.09L145.99 18.09L127.73 36.04L147.87 56L135.63 56L120.55 41.07L120.55 56L110.77 56M168.13 43.20L163.41 43.20Q160.56 43.20 159.13 44.17Q157.70 45.13 157.70 47.01Q157.70 48.74 158.85 49.72Q160.01 50.69 162.06 50.69Q164.63 50.69 166.38 48.85Q168.13 47.01 168.13 44.24L168.13 43.20M177.30 39.78L177.30 56L168.13 56L168.13 51.79Q166.30 54.38 164.02 55.56Q161.73 56.74 158.46 56.74Q154.04 56.74 151.28 54.16Q148.53 51.58 148.53 47.47Q148.53 42.47 151.97 40.13Q155.41 37.79 162.77 37.79L168.13 37.79L168.13 37.08Q168.13 34.93 166.43 33.92Q164.73 32.92 161.12 32.92Q158.20 32.92 155.69 33.50Q153.18 34.09 151.02 35.26L151.02 28.32Q153.94 27.61 156.88 27.25Q159.83 26.88 162.77 26.88Q170.47 26.88 173.88 29.91Q177.30 32.95 177.30 39.78M214.34 38.68L214.34 56L205.20 56L205.20 53.18L205.20 42.80Q205.20 39.06 205.04 37.67Q204.87 36.27 204.46 35.61Q203.93 34.72 203.02 34.23Q202.10 33.73 200.94 33.73Q198.09 33.73 196.47 35.93Q194.84 38.13 194.84 42.01L194.84 56L185.75 56L185.75 16.49L194.84 16.49L194.84 31.73Q196.90 29.24 199.21 28.06Q201.52 26.88 204.31 26.88Q209.24 26.88 211.79 29.90Q214.34 32.92 214.34 38.68" fill="#1e293b"/>
  <path d="M222.47 44.93L222.47 27.56L231.61 27.56L231.61 30.41Q231.61 32.72 231.58 36.21Q231.56 39.70 231.56 40.87Q231.56 44.29 231.73 45.81Q231.91 47.32 232.34 48Q232.90 48.89 233.80 49.37Q234.71 49.86 235.87 49.86Q238.72 49.86 240.34 47.67Q241.97 45.49 241.97 41.60L241.97 27.56L251.06 27.56L251.06 56L241.97 56L241.97 51.89Q239.91 54.38 237.61 55.56Q235.31 56.74 232.55 56.74Q227.62 56.74 225.04 53.71Q222.47 50.69 222.47 44.93M233.82 23.96L240.98 14.41L248.16 14.41L238.79 23.96" fill="#f97316"/>
  <path d="M282.77 28.45L282.77 35.87Q280.92 34.60 279.05 33.99Q277.18 33.38 275.18 33.38Q271.37 33.38 269.25 35.60Q267.13 37.82 267.13 41.81Q267.13 45.79 269.25 48.01Q271.37 50.24 275.18 50.24Q277.31 50.24 279.23 49.60Q281.14 48.97 282.77 47.72L282.77 55.16Q280.64 55.95 278.44 56.34Q276.24 56.74 274.04 56.74Q266.34 56.74 262 52.79Q257.66 48.84 257.66 41.81Q257.66 34.77 262 30.83Q266.34 26.88 274.04 26.88Q276.27 26.88 278.44 27.27Q280.61 27.66 282.77 28.45M290.62 56L290.62 27.56L299.71 27.56L299.71 56L290.62 56M290.62 23.91L290.62 16.49L299.71 16.49L299.71 23.91L290.62 23.91M308.44 56L308.44 16.49L317.53 16.49L317.53 38L327.99 27.56L338.55 27.56L324.66 40.61L339.64 56L328.63 56L317.53 44.14L317.53 56" fill="#1e293b"/>
  <path d="M109.01 80L109.01 71.98L112.44 71.98Q113.97 71.98 114.79 72.66Q115.61 73.34 115.61 74.60Q115.61 75.86 114.79 76.54Q113.97 77.22 112.44 77.22L111.08 77.22L111.08 80L109.01 80M112.22 73.48L111.08 73.48L111.08 75.72L112.22 75.72Q112.82 75.72 113.15 75.43Q113.48 75.13 113.48 74.60Q113.48 74.06 113.15 73.77Q112.82 73.48 112.22 73.48M117.07 80L117.07 71.98L119.14 71.98L119.14 78.44L122.77 78.44L122.77 80L117.07 80M129.45 80L128.95 78.54L125.71 78.54L125.20 80L123.13 80L126.10 71.98L128.56 71.98L131.53 80L129.45 80M127.33 73.86L126.23 77.05L128.43 77.05L127.33 73.86M134.53 76.62L131.48 71.98L133.74 71.98L135.56 74.84L137.39 71.98L139.66 71.98L136.60 76.62L136.60 80L134.53 80L134.53 76.62M144.50 77.22L144.50 75.14L146.44 75.14L146.44 77.22L144.50 77.22M152.40 80L152.40 71.98L154.47 71.98L154.47 78.44L158.10 78.44L158.10 80L152.40 80M159.41 80L159.41 71.98L164.99 71.98L164.99 73.54L161.47 73.54L161.47 75.04L164.78 75.04L164.78 76.60L161.47 76.60L161.47 78.44L165.11 78.44L165.11 80L159.41 80M172.29 80L171.79 78.54L168.55 78.54L168.04 80L165.96 80L168.94 71.98L171.40 71.98L174.37 80L172.29 80M170.17 73.86L169.07 77.05L171.27 77.05L170.17 73.86M177.50 75.54L178.37 75.54Q179.02 75.54 179.30 75.29Q179.59 75.05 179.59 74.50Q179.59 73.95 179.30 73.72Q179.02 73.48 178.37 73.48L177.50 73.48L177.50 75.54M178.09 76.97L177.50 76.97L177.50 80L175.43 80L175.43 71.98L178.59 71.98Q180.18 71.98 180.92 72.51Q181.65 73.04 181.65 74.19Q181.65 74.99 181.27 75.50Q180.89 76.01 180.11 76.25Q180.54 76.35 180.87 76.69Q181.21 77.03 181.55 77.72L182.67 80L180.47 80L179.49 78.01Q179.20 77.41 178.90 77.19Q178.59 76.97 178.09 76.97M183.90 80L183.90 71.98L186.21 71.98L189.13 77.48L189.13 71.98L191.09 71.98L191.09 80L188.78 80L185.86 74.50L185.86 80L183.90 80M197.05 77.22L197.05 75.14L198.99 75.14L198.99 77.22L197.05 77.22M211.31 77.90L211.31 79.56Q210.74 79.85 210.12 80.01Q209.50 80.16 208.83 80.16Q206.83 80.16 205.66 79.04Q204.49 77.92 204.49 76Q204.49 74.08 205.66 72.96Q206.83 71.84 208.83 71.84Q209.50 71.84 210.12 71.99Q210.74 72.14 211.31 72.43L211.31 74.09Q210.73 73.70 210.17 73.52Q209.62 73.33 209 73.33Q207.89 73.33 207.26 74.04Q206.62 74.75 206.62 76Q206.62 77.24 207.26 77.95Q207.89 78.66 209 78.66Q209.62 78.66 210.17 78.47Q210.73 78.29 211.31 77.90M215.09 75.54L215.96 75.54Q216.61 75.54 216.89 75.29Q217.17 75.05 217.17 74.50Q217.17 73.95 216.89 73.72Q216.61 73.48 215.96 73.48L215.09 73.48L215.09 75.54M215.67 76.97L215.09 76.97L215.09 80L213.02 80L213.02 71.98L216.18 71.98Q217.76 71.98 218.50 72.51Q219.24 73.04 219.24 74.19Q219.24 74.99 218.86 75.50Q218.47 76.01 217.70 76.25Q218.12 76.35 218.46 76.69Q218.79 77.03 219.14 77.72L220.26 80L218.06 80L217.08 78.01Q216.79 77.41 216.48 77.19Q216.18 76.97 215.67 76.97M225.15 73.33Q224.21 73.33 223.69 74.03Q223.17 74.73 223.17 76Q223.17 77.26 223.69 77.96Q224.21 78.66 225.15 78.66Q226.10 78.66 226.63 77.96Q227.15 77.26 227.15 76Q227.15 74.73 226.63 74.03Q226.10 73.33 225.15 73.33M225.15 71.84Q227.09 71.84 228.18 72.94Q229.28 74.05 229.28 76Q229.28 77.94 228.18 79.05Q227.09 80.16 225.15 80.16Q223.23 80.16 222.13 79.05Q221.03 77.94 221.03 76Q221.03 74.05 222.13 72.94Q223.23 71.84 225.15 71.84M232.07 80L230.16 71.98L232.14 71.98L233.53 77.81L234.90 71.98L236.90 71.98L238.27 77.81L239.66 71.98L241.62 71.98L239.73 80L237.35 80L235.89 73.90L234.45 80" fill="#94a3b8"/>
</svg>
