<?xml version="1.0" encoding="UTF-8"?>
<svg xmlns="http://www.w3.org/2000/svg" width="400" height="96" viewBox="0 0 400 96" role="img" aria-label="Kahucik">
  <title>Kahucik</title>
  <g transform="translate(2,5) scale(1.05)" fill="none">
    <path d="M30 46 C12 28, 4 18, 8 10 C18 14, 26 30, 34 44Z" fill="#15803D"/>
      <path d="M32 48 C14 36, 2 30, 2 20 C14 22, 28 36, 36 48Z" fill="#16A34A"/>
      <path d="M34 50 C18 42, 6 40, 4 32 C16 34, 30 42, 38 52Z" fill="#4ADE80"/>
      <ellipse cx="34" cy="50" rx="5" ry="3.5" fill="#FEF3C7"/>
      <ellipse cx="44" cy="54" rx="18" ry="16" fill="#1D4ED8"/>
      <path d="M46 46 C58 42, 66 48, 64 58 C58 62, 48 60, 44 54Z" fill="#9A3412"/>
      <path d="M46 44 C56 38, 64 42, 62 52 C56 54, 48 52, 44 48Z" fill="#EA580C"/>
      <path d="M46 42 C54 36, 60 38, 58 46 C54 48, 48 46, 45 44Z" fill="#EF4444"/>
      <path d="M48 40 L42 22 L50 34Z" fill="#FACC15"/>
      <path d="M52 38 L50 18 L56 32Z" fill="#FBBF24"/>
      <path d="M56 36 L58 16 L62 30Z" fill="#F59E0B"/>
      <path d="M50 40 L46 28 L54 36Z" fill="#FB923C"/>
      <circle cx="56" cy="30" r="9" fill="#F97316"/>
      <path d="M50 24 C50 14, 54 12, 56 20 C58 12, 62 12, 62 22 C64 14, 68 16, 66 24 C62 26, 52 26, 50 24Z" fill="#DC2626"/>
      <path d="M64 30 L74 32 L64 35Z" fill="#FBBF24"/>
      <path d="M58 36 C58 42, 54 44, 52 40 C54 38, 56 36, 58 36Z" fill="#DC2626"/>
      <circle cx="58" cy="29" r="2.4" fill="#FDE68A"/>
      <ellipse cx="58.4" cy="29" rx="1.1" ry="1.5" fill="#1E293B"/>
      <path d="M38 68 L36 78 M36 78 L30 82 M36 78 L36 84 M36 78 L42 82" stroke="#D6A86A" stroke-width="2.2" stroke-linecap="round" stroke-linejoin="round"/>
      <path d="M48 68 L50 78 M50 78 L44 82 M50 78 L50 84 M50 78 L56 82" stroke="#D6A86A" stroke-width="2.2" stroke-linecap="round" stroke-linejoin="round"/>
  </g>
  <path d="M109 54.50Q106.98 54.50 106.09 53.92Q105.19 53.33 105 52.32Q104.80 51.31 104.80 50.25L104.80 19.56Q104.80 18.50 105 17.52Q105.19 16.54 106.09 15.95Q106.98 15.36 109.06 15.36Q111.18 15.36 112.05 15.98Q112.92 16.59 113.12 17.54Q113.31 18.50 113.31 19.62L113.31 29.30L125.30 16.76Q126.42 15.64 127.34 15.19Q128.26 14.74 129.24 15.02Q130.22 15.30 131.34 16.42Q133.25 18.16 133.28 19.48Q133.30 20.79 131.68 22.42L118.80 34.96L131.79 47.39Q133.53 49.13 133.44 50.50Q133.36 51.87 131.46 53.44Q130.11 54.56 129.13 54.87Q128.15 55.18 127.31 54.70Q126.47 54.22 125.41 53.05L113.31 40.45L113.31 50.30Q113.31 51.37 113.12 52.35Q112.92 53.33 112.02 53.92Q111.13 54.50 109 54.50M160.46 54.45Q158.39 54.45 157.41 53.72Q156.43 52.99 156.43 51.93L156.99 50.98Q156.66 51.54 155.70 52.35Q154.75 53.16 153.24 53.80Q151.73 54.45 149.49 54.45Q146.91 54.45 144.59 53.33Q142.26 52.21 140.47 50.22Q138.68 48.23 137.64 45.71Q136.61 43.19 136.61 40.39Q136.61 37.65 137.64 35.16Q138.68 32.66 140.50 30.73Q142.32 28.80 144.62 27.68Q146.91 26.56 149.49 26.56Q151.56 26.56 153.02 27.15Q154.47 27.74 155.45 28.52Q156.43 29.30 156.94 30.03L156.49 29.25Q156.43 27.90 157.41 27.20Q158.39 26.50 160.52 26.50Q162.54 26.50 163.40 27.12Q164.27 27.74 164.47 28.74Q164.66 29.75 164.66 30.87L164.66 50.19Q164.66 51.26 164.47 52.26Q164.27 53.27 163.40 53.86Q162.54 54.45 160.46 54.45M150.72 46.10Q152.18 46.10 153.38 45.35Q154.58 44.59 155.28 43.30Q155.98 42.02 155.98 40.45Q155.98 38.82 155.26 37.56Q154.53 36.30 153.30 35.55Q152.06 34.79 150.61 34.79Q148.98 34.79 147.72 35.58Q146.46 36.36 145.71 37.65Q144.95 38.94 144.95 40.56Q144.95 42.07 145.71 43.33Q146.46 44.59 147.78 45.35Q149.10 46.10 150.72 46.10M173.12 54.50Q171.10 54.50 170.21 53.92Q169.31 53.33 169.12 52.35Q168.92 51.37 168.92 50.25L168.92 17.99Q168.92 16.87 169.14 15.92Q169.37 14.97 170.26 14.38Q171.16 13.79 173.18 13.79Q175.25 13.79 176.12 14.41Q176.98 15.02 177.18 15.98Q177.38 16.93 177.38 18.05L177.38 29.47Q178.38 28.41 179.98 27.46Q181.58 26.50 183.76 26.50Q187.23 26.50 190 28.27Q192.78 30.03 194.43 33.11Q196.08 36.19 196.08 40.17L196.08 50.30Q196.08 51.42 195.86 52.38Q195.63 53.33 194.79 53.92Q193.95 54.50 191.82 54.50Q189.86 54.50 188.94 53.92Q188.02 53.33 187.82 52.35Q187.62 51.37 187.62 50.25L187.62 40.11Q187.62 38.49 187.06 37.34Q186.50 36.19 185.41 35.52Q184.32 34.85 182.75 34.85Q180.68 34.85 179.14 36.11Q177.60 37.37 177.38 39.16L177.38 50.30Q177.38 51.42 177.15 52.38Q176.93 53.33 176.06 53.92Q175.19 54.50 173.12 54.50" fill="#1e293b"/>
  <path d="M212.21 54.45Q209.63 54.45 207.36 53.44Q205.10 52.43 203.42 50.61Q201.74 48.79 200.81 46.30Q199.89 43.81 199.89 40.84L199.89 30.70Q199.89 29.58 200.11 28.63Q200.34 27.68 201.20 27.06Q202.07 26.45 204.14 26.45Q206.22 26.45 207.08 27.06Q207.95 27.68 208.15 28.66Q208.34 29.64 208.34 30.76L208.34 40.84Q208.34 42.46 208.93 43.67Q209.52 44.87 210.67 45.49Q211.82 46.10 213.38 46.10Q215.01 46.10 216.16 45.46Q217.30 44.82 217.95 43.64Q218.59 42.46 218.59 40.84L218.59 30.65Q218.59 29.53 218.82 28.58Q219.04 27.62 219.91 27.04Q220.78 26.45 222.85 26.45Q224.92 26.45 225.79 27.06Q226.66 27.68 226.85 28.66Q227.05 29.64 227.05 30.70L227.05 50.42Q227.05 51.48 226.85 52.40Q226.66 53.33 225.76 53.89Q224.86 54.45 222.85 54.45Q221.34 54.45 220.50 54.11Q219.66 53.78 219.26 53.27Q218.87 52.77 218.79 52.21Q218.70 51.65 218.70 51.20L219.43 50.58Q219.26 50.81 218.70 51.42Q218.14 52.04 217.22 52.74Q216.30 53.44 215.06 53.94Q213.83 54.45 212.21 54.45M221.17 21.46L211.37 24.49Q210.36 24.54 209.72 23.87Q209.07 23.20 208.57 21.69Q207.95 19.73 208.34 18.78Q208.74 17.82 210.42 17.26L220.27 14.24Q221.22 14.18 221.90 14.88Q222.57 15.58 223.02 17.10Q223.63 18.94 223.21 19.92Q222.79 20.90 221.17 21.46" fill="#f97316"/>
  <path d="M245.36 54.73Q242.90 54.73 240.35 53.80Q237.80 52.88 235.64 51.06Q233.49 49.24 232.20 46.58Q230.91 43.92 230.91 40.45Q230.91 36.98 232.20 34.34Q233.49 31.71 235.62 29.92Q237.74 28.13 240.29 27.20Q242.84 26.28 245.25 26.28Q247.32 26.28 248.97 26.76Q250.62 27.23 251.77 27.90Q252.92 28.58 253.42 29.08Q254.38 29.81 255.10 30.54Q255.83 31.26 255.78 32.44Q255.72 33.06 255.38 33.70Q255.05 34.34 254.54 35.02Q252.86 37.37 251.18 37.14Q250.34 36.98 249.64 36.58Q248.94 36.19 248.30 35.77Q247.66 35.35 246.93 35.07Q246.20 34.79 245.25 34.79Q243.62 34.79 242.34 35.52Q241.05 36.25 240.29 37.54Q239.54 38.82 239.54 40.50Q239.54 42.13 240.29 43.42Q241.05 44.70 242.31 45.46Q243.57 46.22 245.14 46.22Q246.09 46.22 246.79 45.99Q247.49 45.77 247.99 45.46Q248.50 45.15 248.78 44.98Q249.45 44.54 250.06 44.17Q250.68 43.81 251.35 43.81Q252.14 43.81 252.98 44.40Q253.82 44.98 254.82 46.27Q255.72 47.45 255.86 48.46Q256 49.46 255.38 50.36Q254.77 51.26 253.48 52.10Q253.03 52.49 251.88 53.10Q250.74 53.72 249.08 54.22Q247.43 54.73 245.36 54.73M264.29 54.50Q262.22 54.50 261.35 53.92Q260.48 53.33 260.28 52.35Q260.09 51.37 260.09 50.30L260.09 30.76Q260.09 29.64 260.28 28.69Q260.48 27.74 261.38 27.15Q262.27 26.56 264.34 26.56Q266.36 26.56 267.23 27.18Q268.10 27.79 268.29 28.74Q268.49 29.70 268.49 30.87L268.49 50.36Q268.49 51.42 268.29 52.40Q268.10 53.38 267.23 53.94Q266.36 54.50 264.29 54.50M264.29 22.47Q262.16 22.47 261.26 21.86Q260.37 21.24 260.17 20.23Q259.98 19.22 259.98 18.10Q259.98 16.93 260.20 15.95Q260.42 14.97 261.32 14.38Q262.22 13.79 264.34 13.79Q266.42 13.79 267.31 14.41Q268.21 15.02 268.40 16.03Q268.60 17.04 268.60 18.16Q268.60 19.28 268.40 20.29Q268.21 21.30 267.31 21.88Q266.42 22.47 264.29 22.47M288.20 40.39L296.49 46.89Q298.22 48.40 298.34 49.77Q298.45 51.14 296.82 52.94Q295.59 54.22 294.67 54.62Q293.74 55.01 292.85 54.64Q291.95 54.28 290.78 53.22L281.93 45.49L281.93 50.30Q281.93 51.42 281.73 52.38Q281.54 53.33 280.67 53.92Q279.80 54.50 277.73 54.50Q275.71 54.50 274.82 53.92Q273.92 53.33 273.72 52.35Q273.53 51.37 273.53 50.25L273.53 17.94Q273.53 16.82 273.75 15.86Q273.98 14.91 274.87 14.32Q275.77 13.74 277.78 13.74Q279.80 13.74 280.67 14.32Q281.54 14.91 281.73 15.89Q281.93 16.87 281.93 17.99L281.93 34.90L288.20 28.86Q289.32 27.79 290.30 27.40Q291.28 27.01 292.23 27.34Q293.18 27.68 294.25 28.86Q296.04 30.82 295.98 32.02Q295.93 33.22 294.25 34.90" fill="#1e293b"/>
  <path d="M105.28 78.09Q104.89 78.09 104.73 77.98Q104.57 77.86 104.53 77.67Q104.48 77.49 104.48 77.29L104.48 71.55Q104.48 71.35 104.53 71.17Q104.57 70.99 104.73 70.87Q104.90 70.75 105.29 70.75L107.44 70.75Q107.89 70.75 108.33 70.91Q108.78 71.07 109.16 71.40Q109.54 71.73 109.78 72.21Q110.02 72.70 110.02 73.35Q110.02 73.99 109.78 74.47Q109.54 74.95 109.16 75.28Q108.78 75.60 108.33 75.76Q107.87 75.92 107.43 75.92L106.09 75.92L106.09 77.30Q106.09 77.50 106.05 77.68Q106.01 77.86 105.84 77.98Q105.67 78.09 105.28 78.09M106.09 72.35L106.09 74.33L107.44 74.33Q107.67 74.33 107.90 74.23Q108.13 74.13 108.28 73.91Q108.43 73.68 108.43 73.34Q108.43 73.04 108.31 72.82Q108.18 72.60 107.95 72.48Q107.73 72.35 107.43 72.35L106.09 72.35M116.52 78.09L112.84 78.09Q112.47 78.09 112.30 77.98Q112.13 77.87 112.09 77.69Q112.05 77.50 112.05 77.30L112.05 71.55Q112.05 71.34 112.08 71.16Q112.12 70.99 112.29 70.87Q112.46 70.75 112.84 70.75Q113.24 70.75 113.41 70.87Q113.57 70.99 113.61 71.16Q113.64 71.34 113.64 71.55L113.64 76.71L116.52 76.71Q116.70 76.71 116.86 76.74Q117.01 76.77 117.11 76.92Q117.21 77.07 117.21 77.40Q117.21 77.73 117.11 77.88Q117 78.03 116.85 78.06Q116.70 78.09 116.52 78.09M123.05 71.23L125.83 76.98Q125.95 77.24 125.96 77.43Q125.97 77.61 125.85 77.75Q125.73 77.89 125.46 78.03Q125.04 78.23 124.81 78.15Q124.58 78.07 124.38 77.65L122.32 73.35L120.27 77.65Q120.06 78.06 119.83 78.14Q119.61 78.22 119.19 78.02Q118.92 77.89 118.80 77.75Q118.67 77.61 118.69 77.42Q118.70 77.22 118.83 76.96L121.59 71.22Q121.70 71.01 121.90 70.88Q122.11 70.75 122.33 70.75Q122.49 70.75 122.62 70.81Q122.76 70.87 122.87 70.98Q122.98 71.08 123.05 71.23M124.09 76.38L120.55 76.38L121.20 75.03L123.44 75.03L124.09 76.38M133.39 70.87Q133.77 71.13 133.80 71.37Q133.84 71.61 133.62 71.94L131.40 75.27L131.40 77.32Q131.40 77.52 131.36 77.70Q131.32 77.88 131.16 78Q130.99 78.12 130.59 78.12Q130.21 78.12 130.04 78Q129.87 77.88 129.83 77.70Q129.80 77.51 129.80 77.30L129.80 75.27L127.57 71.94Q127.34 71.61 127.39 71.36Q127.44 71.12 127.81 70.87Q128.09 70.69 128.27 70.66Q128.46 70.63 128.62 70.73Q128.78 70.84 128.93 71.08L130.57 73.71L132.26 71.08Q132.43 70.83 132.58 70.73Q132.74 70.63 132.93 70.66Q133.11 70.69 133.39 70.87M139.97 75.85Q139.48 75.85 139.29 75.65Q139.11 75.46 139.11 75Q139.11 74.53 139.29 74.33Q139.47 74.13 139.97 74.13Q140.45 74.13 140.63 74.32Q140.82 74.51 140.82 74.99Q140.82 75.45 140.64 75.65Q140.46 75.85 139.97 75.85M151.03 78.09L147.35 78.09Q146.98 78.09 146.81 77.98Q146.64 77.87 146.60 77.69Q146.56 77.50 146.56 77.30L146.56 71.55Q146.56 71.34 146.59 71.16Q146.63 70.99 146.80 70.87Q146.97 70.75 147.35 70.75Q147.75 70.75 147.92 70.87Q148.08 70.99 148.12 71.16Q148.15 71.34 148.15 71.55L148.15 76.71L151.03 76.71Q151.21 76.71 151.37 76.74Q151.52 76.77 151.62 76.92Q151.72 77.07 151.72 77.40Q151.72 77.73 151.62 77.88Q151.51 78.03 151.36 78.06Q151.21 78.09 151.03 78.09M158.42 78.09L154.43 78.09Q154.06 78.09 153.89 77.98Q153.72 77.87 153.68 77.69Q153.65 77.50 153.65 77.30L153.65 71.55Q153.65 71.09 153.83 70.92Q154 70.75 154.47 70.75L158.44 70.75Q158.65 70.75 158.82 70.79Q159 70.83 159.12 71Q159.23 71.16 159.23 71.56Q159.23 71.94 159.12 72.11Q159 72.28 158.82 72.31Q158.63 72.35 158.42 72.35L155.24 72.35L155.24 73.71L157.41 73.71Q157.62 73.71 157.78 73.74Q157.94 73.77 158.04 73.92Q158.13 74.06 158.13 74.41Q158.13 74.73 158.04 74.88Q157.94 75.03 157.77 75.06Q157.61 75.09 157.39 75.09L155.24 75.09L155.24 76.50L158.44 76.50Q158.65 76.50 158.82 76.54Q159 76.58 159.12 76.75Q159.23 76.91 159.23 77.31Q159.23 77.69 159.12 77.85Q159 78.02 158.82 78.06Q158.63 78.09 158.42 78.09M165.17 71.23L167.94 76.98Q168.07 77.24 168.08 77.43Q168.09 77.61 167.97 77.75Q167.85 77.89 167.57 78.03Q167.15 78.23 166.92 78.15Q166.69 78.07 166.49 77.65L164.43 73.35L162.39 77.65Q162.18 78.06 161.95 78.14Q161.72 78.22 161.30 78.02Q161.03 77.89 160.91 77.75Q160.79 77.61 160.80 77.42Q160.81 77.22 160.95 76.96L163.71 71.22Q163.81 71.01 164.02 70.88Q164.22 70.75 164.44 70.75Q164.60 70.75 164.74 70.81Q164.87 70.87 164.98 70.98Q165.09 71.08 165.17 71.23M166.21 76.38L162.67 76.38L163.32 75.03L165.56 75.03L166.21 76.38M170.66 78.09Q170.28 78.09 170.12 77.98Q169.95 77.86 169.91 77.67Q169.88 77.49 169.88 77.29L169.88 71.54Q169.88 71.34 169.91 71.16Q169.95 70.99 170.12 70.87Q170.28 70.75 170.67 70.75L172.86 70.75Q173.29 70.75 173.74 70.91Q174.19 71.07 174.57 71.40Q174.95 71.72 175.18 72.20Q175.41 72.69 175.41 73.35Q175.41 73.79 175.28 74.20Q175.15 74.61 174.88 74.95Q174.62 75.30 174.23 75.55Q173.84 75.80 173.34 75.90L171.47 75.90L171.47 77.30Q171.47 77.50 171.43 77.68Q171.39 77.86 171.22 77.98Q171.05 78.09 170.66 78.09M175.09 77.88Q174.71 78.17 174.47 78.11Q174.24 78.04 173.99 77.70L172.14 75.05L173.94 74.82L175.29 76.76Q175.47 77.01 175.52 77.19Q175.57 77.37 175.47 77.53Q175.37 77.69 175.09 77.88M171.47 72.35L171.47 74.33L172.93 74.33Q173.08 74.33 173.24 74.27Q173.39 74.21 173.52 74.09Q173.64 73.98 173.73 73.79Q173.81 73.60 173.81 73.34Q173.81 73.03 173.69 72.81Q173.57 72.59 173.35 72.47Q173.13 72.35 172.84 72.35L171.47 72.35M178.18 78.09Q177.82 78.09 177.65 77.98Q177.48 77.86 177.44 77.68Q177.40 77.50 177.40 77.29L177.40 71.52Q177.40 71.32 177.44 71.15Q177.48 70.99 177.65 70.88Q177.83 70.77 178.22 70.77Q178.59 70.77 178.74 70.85Q178.89 70.94 179 71.10L182.07 75.31L182.07 71.52Q182.07 71.32 182.12 71.15Q182.16 70.99 182.33 70.88Q182.50 70.77 182.88 70.77Q183.27 70.77 183.43 70.88Q183.59 71 183.63 71.18Q183.66 71.36 183.66 71.56L183.66 77.30Q183.66 77.50 183.62 77.68Q183.58 77.86 183.41 77.98Q183.24 78.09 182.86 78.09Q182.56 78.09 182.40 78.04Q182.24 77.99 182.12 77.84L178.99 73.60L178.99 77.30Q178.99 77.50 178.95 77.68Q178.91 77.86 178.74 77.98Q178.57 78.09 178.18 78.09M190.17 75.85Q189.69 75.85 189.50 75.65Q189.31 75.46 189.31 75Q189.31 74.53 189.49 74.33Q189.68 74.13 190.17 74.13Q190.65 74.13 190.84 74.32Q191.02 74.51 191.02 74.99Q191.02 75.45 190.84 75.65Q190.66 75.85 190.17 75.85M200.21 78.18Q199.75 78.18 199.24 78.03Q198.72 77.88 198.23 77.59Q197.74 77.30 197.33 76.84Q196.93 76.38 196.69 75.77Q196.46 75.15 196.46 74.37Q196.46 73.61 196.69 73.02Q196.93 72.42 197.33 71.98Q197.73 71.54 198.22 71.25Q198.71 70.97 199.24 70.82Q199.76 70.68 200.24 70.68Q200.77 70.68 201.17 70.81Q201.57 70.93 201.82 71.06Q202.07 71.20 202.14 71.25Q202.33 71.36 202.49 71.51Q202.66 71.66 202.67 71.90Q202.67 72.03 202.62 72.15Q202.58 72.27 202.48 72.40Q202.31 72.64 202.16 72.76Q202.01 72.87 201.85 72.87Q201.73 72.87 201.62 72.80Q201.51 72.74 201.34 72.63Q201.26 72.58 201.13 72.50Q200.99 72.42 200.76 72.36Q200.53 72.29 200.17 72.29Q199.81 72.29 199.43 72.42Q199.06 72.55 198.74 72.81Q198.43 73.08 198.24 73.48Q198.05 73.88 198.05 74.42Q198.05 74.98 198.25 75.38Q198.44 75.77 198.75 76.04Q199.07 76.30 199.44 76.43Q199.82 76.56 200.17 76.56Q200.49 76.56 200.71 76.50Q200.94 76.44 201.10 76.35Q201.26 76.26 201.38 76.18Q201.50 76.11 201.62 76.05Q201.74 75.98 201.86 75.98Q202.01 75.98 202.16 76.10Q202.31 76.22 202.47 76.47Q202.57 76.60 202.62 76.73Q202.67 76.87 202.66 76.99Q202.66 77.21 202.49 77.35Q202.33 77.50 202.14 77.61Q202.05 77.65 201.81 77.80Q201.57 77.94 201.17 78.06Q200.77 78.18 200.21 78.18M205.44 78.09Q205.06 78.09 204.89 77.98Q204.72 77.86 204.69 77.67Q204.65 77.49 204.65 77.29L204.65 71.54Q204.65 71.34 204.69 71.16Q204.72 70.99 204.89 70.87Q205.06 70.75 205.45 70.75L207.63 70.75Q208.06 70.75 208.51 70.91Q208.96 71.07 209.34 71.40Q209.72 71.72 209.95 72.20Q210.18 72.69 210.18 73.35Q210.18 73.79 210.05 74.20Q209.92 74.61 209.66 74.95Q209.39 75.30 209.01 75.55Q208.62 75.80 208.11 75.90L206.24 75.90L206.24 77.30Q206.24 77.50 206.20 77.68Q206.16 77.86 205.99 77.98Q205.82 78.09 205.44 78.09M209.87 77.88Q209.48 78.17 209.25 78.11Q209.02 78.04 208.76 77.70L206.92 75.05L208.71 74.82L210.07 76.76Q210.25 77.01 210.29 77.19Q210.34 77.37 210.24 77.53Q210.14 77.69 209.87 77.88M206.24 72.35L206.24 74.33L207.70 74.33Q207.85 74.33 208.01 74.27Q208.17 74.21 208.29 74.09Q208.42 73.98 208.50 73.79Q208.59 73.60 208.59 73.34Q208.59 73.03 208.47 72.81Q208.34 72.59 208.12 72.47Q207.90 72.35 207.61 72.35L206.24 72.35M215.60 78.20Q214.85 78.20 214.18 77.91Q213.51 77.62 213.01 77.11Q212.52 76.60 212.23 75.93Q211.94 75.26 211.94 74.48Q211.94 73.69 212.22 73.01Q212.50 72.32 212.98 71.79Q213.47 71.27 214.12 70.98Q214.77 70.68 215.52 70.68Q216.28 70.68 216.94 70.97Q217.61 71.26 218.10 71.77Q218.60 72.29 218.88 72.97Q219.17 73.65 219.17 74.45Q219.17 75.22 218.89 75.89Q218.62 76.57 218.12 77.09Q217.63 77.61 216.98 77.91Q216.34 78.20 215.60 78.20M215.55 76.60Q215.97 76.60 216.34 76.44Q216.71 76.27 216.98 75.98Q217.26 75.69 217.41 75.30Q217.57 74.90 217.57 74.44Q217.57 74 217.41 73.61Q217.25 73.21 216.97 72.91Q216.70 72.61 216.33 72.45Q215.97 72.28 215.55 72.28Q215.14 72.28 214.78 72.45Q214.42 72.61 214.14 72.91Q213.86 73.21 213.70 73.61Q213.53 74 213.53 74.45Q213.53 74.89 213.70 75.29Q213.86 75.68 214.14 75.97Q214.42 76.27 214.77 76.44Q215.13 76.60 215.55 76.60M223.58 78.07Q223.30 78.07 223.15 77.97Q222.99 77.86 222.92 77.73Q222.85 77.59 222.83 77.54L220.86 71.82Q220.72 71.37 220.81 71.16Q220.91 70.94 221.36 70.80Q221.65 70.70 221.84 70.71Q222.02 70.72 222.14 70.86Q222.26 71 222.36 71.29L223.67 75.19L224.77 71.34Q224.80 71.24 224.87 71.10Q224.94 70.97 225.10 70.86Q225.26 70.75 225.54 70.75Q225.86 70.75 226.03 70.87Q226.19 70.99 226.25 71.12Q226.32 71.26 226.35 71.33L227.46 75.21L228.76 71.30Q228.86 71.01 228.98 70.87Q229.10 70.72 229.29 70.70Q229.49 70.68 229.78 70.79Q230.10 70.90 230.22 71.03Q230.35 71.15 230.35 71.34Q230.36 71.52 230.27 71.82L228.30 77.54Q228.28 77.60 228.21 77.73Q228.14 77.86 227.99 77.97Q227.84 78.07 227.54 78.07Q227.26 78.07 227.09 77.95Q226.93 77.82 226.86 77.68Q226.79 77.54 226.77 77.49L225.56 73.57L224.35 77.49Q224.34 77.54 224.27 77.69Q224.20 77.83 224.03 77.95Q223.87 78.07 223.58 78.07" fill="#94a3b8"/>
</svg>
